<svg height="56" viewBox="0 0 56 56" width="56" xmlns="http://www.w3.org/2000/svg"><path d="m27.9999 51.9063c13.0547 0 23.9064-10.8282 23.9064-23.9063 0-13.0547-10.8751-23.9063-23.9298-23.9063-13.0782 0-23.8828 10.8516-23.8828 23.9063 0 13.0781 10.8281 23.9063 23.9062 23.9063zm-8.4141-13.5c-1.1015 0-1.9922-.8907-1.9922-1.9922 0-.5391.2344-1.0078.6094-1.3594l6.9844-7.0313-6.9844-7.0312c-.375-.3281-.6094-.8203-.6094-1.3594 0-1.0781.8907-1.9453 1.9922-1.9453.5391 0 1.0078.2109 1.3594.5859l7.0313 7.0078 7.0781-7.0312c.3984-.4219.8203-.6094 1.3359-.6094 1.1016 0 1.9922.8906 1.9922 1.9688 0 .539-.1875.9843-.5859 1.3594l-7.0313 7.0546 7.0078 6.9844c.3516.375.586.8438.586 1.4063 0 1.1015-.8906 1.9922-1.9922 1.9922-.5625 0-1.0313-.2344-1.3828-.586l-7.0078-7.0313-6.9844 7.0313c-.3516.375-.8672.586-1.4063.586z"/></svg>