<svg width="42" height="42" viewBox="0 0 42 42" fill="none" xmlns="http://www.w3.org/2000/svg">
<g id="Group">
<path id="Vector" d="M0.999999 21C0.999999 11.5719 0.999997 6.85787 3.92884 3.92893C6.85789 1 11.572 1 21 1C30.4281 1 35.1421 1 38.0711 3.92893C41 6.85787 41 11.5719 41 21C41 30.428 41 35.1421 38.0711 38.0712C35.1421 41 30.4281 41 21 41C11.572 41 6.85789 41 3.92884 38.0712C0.999997 35.1421 0.999999 30.428 0.999999 21Z" stroke="#068FFF" stroke-width="1.5" stroke-linejoin="round"/>
<path id="Vector_2" d="M16.7891 29.4219L23.8042 23.0633C25.6787 21.3644 25.6787 20.6372 23.8042 18.9383L16.7891 12.5798" stroke="#068FFF" stroke-width="1.5" stroke-linecap="round" stroke-linejoin="round"/>
</g>
</svg>
