<svg fill="none" height="24" viewBox="0 0 24 24" width="24" xmlns="http://www.w3.org/2000/svg"><g stroke="#141b34" stroke-linejoin="round" stroke-width="1.5"><path d="m21.5 12c0-4.47834 0-6.71751-1.3912-8.10876-1.3913-1.39124-3.6305-1.39124-8.1088-1.39124-4.47834 0-6.71751 0-8.10876 1.39124-1.39124 1.39125-1.39124 3.63042-1.39124 8.10876 0 4.4783 0 6.7175 1.39124 8.1088 1.39125 1.3912 3.63042 1.3912 8.10876 1.3912 4.4783 0 6.7175 0 8.1088-1.3912 1.3912-1.3913 1.3912-3.6305 1.3912-8.1088z"/><path d="m10 8 3.3322 3.0203c.8904.807.8904 1.1524 0 1.9594l-3.3322 3.0203" stroke-linecap="round"/></g></svg>